<svg width="20" height="20" viewBox="0 0 20 20" fill="none" xmlns="http://www.w3.org/2000/svg">
    <path fill-rule="evenodd" clip-rule="evenodd" d="M9.93145 4.44334C10.0972 4.44334 10.2562 4.50919 10.3734 4.6264C10.4906 4.74361 10.5565 4.90258 10.5565 5.06834L10.5565 12.3096L13.239 9.62584C13.2971 9.56773 13.366 9.52163 13.442 9.49018C13.5179 9.45874 13.5993 9.44255 13.6815 9.44255C13.7636 9.44255 13.845 9.45874 13.9209 9.49018C13.9969 9.52163 14.0658 9.56773 14.124 9.62584C14.1821 9.68395 14.2282 9.75294 14.2596 9.82886C14.2911 9.90478 14.3072 9.98616 14.3072 10.0683C14.3072 10.1505 14.2911 10.2319 14.2596 10.3078C14.2282 10.3837 14.1821 10.4527 14.124 10.5108L10.374 14.2608C10.3159 14.319 10.2469 14.3652 10.171 14.3967C10.0951 14.4282 10.0137 14.4445 9.93145 14.4445C9.84924 14.4445 9.76784 14.4282 9.69191 14.3967C9.61598 14.3652 9.54701 14.319 9.48895 14.2608L5.73895 10.5108C5.6216 10.3935 5.55566 10.2343 5.55566 10.0683C5.55566 9.90237 5.6216 9.7432 5.73895 9.62584C5.85631 9.50848 6.01548 9.44255 6.18145 9.44255C6.34742 9.44255 6.5066 9.50848 6.62395 9.62584L9.30645 12.3096L9.30645 5.06834C9.30645 4.90258 9.3723 4.74361 9.48951 4.6264C9.60672 4.50919 9.76569 4.44334 9.93145 4.44334Z" fill="#333333"/>
</svg>
