<svg width="20" height="20" viewBox="0 0 20 20" fill="none" xmlns="http://www.w3.org/2000/svg">
<path d="M4.16666 2.5H15C15.663 2.5 16.2989 2.76339 16.7678 3.23223C17.2366 3.70107 17.5 4.33696 17.5 5V12.5C17.5 13.163 17.2366 13.7989 16.7678 14.2678C16.2989 14.7366 15.663 15 15 15H11.1783L8.08916 18.0892C7.97261 18.2057 7.82414 18.285 7.66252 18.3172C7.50089 18.3493 7.33336 18.3328 7.18111 18.2697C7.02886 18.2067 6.89873 18.0999 6.80716 17.9629C6.71558 17.8259 6.66669 17.6648 6.66666 17.5V15H4.16666C3.50362 15 2.86773 14.7366 2.39889 14.2678C1.93005 13.7989 1.66666 13.163 1.66666 12.5V5C1.66666 4.33696 1.93005 3.70107 2.39889 3.23223C2.86773 2.76339 3.50362 2.5 4.16666 2.5ZM15 3.33333H4.16666C3.72463 3.33333 3.30071 3.50893 2.98815 3.82149C2.67558 4.13405 2.49999 4.55797 2.49999 5V12.5C2.49999 12.942 2.67558 13.3659 2.98815 13.6785C3.30071 13.9911 3.72463 14.1667 4.16666 14.1667H7.49999V17.5L10.8333 14.1667H15C15.442 14.1667 15.8659 13.9911 16.1785 13.6785C16.4911 13.3659 16.6667 12.942 16.6667 12.5V5C16.6667 4.55797 16.4911 4.13405 16.1785 3.82149C15.8659 3.50893 15.442 3.33333 15 3.33333ZM9.16666 5H9.99999V9.16667H9.16666V5ZM9.16666 10.8333H9.99999V12.5H9.16666V10.8333Z" fill="#929292"/>
</svg>
